<svg width="25" height="24" viewBox="0 0 25 24" fill="none" xmlns="http://www.w3.org/2000/svg">
<path d="M22.8994 8.81387C22.8994 15.3779 14.4052 20.2181 14.0105 20.4375C13.9065 20.4963 12.8994 21 12.8994 21C12.8994 21 11.8923 20.4963 11.7883 20.4375C11.3937 20.2181 2.89941 15.3779 2.89941 8.81387C2.90107 7.27247 3.48483 5.7947 4.52261 4.70476C5.5604 3.61483 6.96747 3.00174 8.43513 3C10.2789 3 11.8932 3.8327 12.8994 5.24022C13.9057 3.8327 15.5199 3 17.3637 3C18.8314 3.00174 20.2384 3.61483 21.2762 4.70476C22.314 5.7947 22.8978 7.27247 22.8994 8.81387Z" stroke="#B0B0B0" stroke-width="1.5"/>
</svg>
