<svg width="25" height="24" viewBox="0 0 25 24" fill="none" xmlns="http://www.w3.org/2000/svg">
<g id="ic-heart(fill)-24">
<path id="Vector" d="M22.2998 8.81387C22.2998 15.3779 13.8056 20.2181 13.4109 20.4375C13.3069 20.4963 12.2998 21 12.2998 21C12.2998 21 11.2927 20.4963 11.1887 20.4375C10.7941 20.2181 2.2998 15.3779 2.2998 8.81387C2.30146 7.27247 2.88522 5.7947 3.92301 4.70476C4.96079 3.61483 6.36786 3.00174 7.83552 3C9.67927 3 11.2936 3.8327 12.2998 5.24022C13.3061 3.8327 14.9203 3 16.7641 3C18.2317 3.00174 19.6388 3.61483 20.6766 4.70476C21.7144 5.7947 22.2982 7.27247 22.2998 8.81387Z" fill="black" stroke="black" stroke-width="1.5"/>
</g>
</svg>
