<svg width="81" height="80" viewBox="0 0 81 80" fill="none" xmlns="http://www.w3.org/2000/svg">
<rect x="0.5" width="80" height="80" rx="16" fill="#CDFEE7"/>
<path d="M19 40C29.4 40 33 31 33 26C33 36.4 42 40 47 40C35.8 40 33 49.3333 33 54C33 43.6 24 40 19 40Z" stroke="#24E2A5" stroke-width="2.5"/>
<path d="M44 25.9961C48.4571 25.9961 50 22.139 50 19.9961C50 24.4532 53.8571 25.9961 56 25.9961C51.2 25.9961 50 29.9961 50 31.9961C50 27.539 46.1429 25.9961 44 25.9961Z" fill="#24E2A5" stroke="#24E2A5" stroke-width="2.5"/>
<path d="M44 52C49.9429 52 52 46.8571 52 44C52 49.9429 57.1429 52 60 52C53.6 52 52 57.3333 52 60C52 54.0571 46.8571 52 44 52Z" fill="#24E2A5" stroke="#24E2A5" stroke-width="2.5"/>
</svg>
