<svg width="40" height="40" viewBox="0 0 40 40" fill="none" xmlns="http://www.w3.org/2000/svg">
<path d="M1.66663 19.9987C10.3333 19.9987 13.3333 12.4987 13.3333 8.33203C13.3333 16.9987 20.8333 19.9987 25 19.9987C15.6666 19.9987 13.3333 27.7765 13.3333 31.6654C13.3333 22.9987 5.83329 19.9987 1.66663 19.9987Z" stroke="#24E2A5" stroke-width="2"/>
<path d="M22.5 8.33203C26.2143 8.33203 27.5 5.11775 27.5 3.33203C27.5 7.04632 30.7143 8.33203 32.5 8.33203C28.5 8.33203 27.5 11.6654 27.5 13.332C27.5 9.61775 24.2857 8.33203 22.5 8.33203Z" fill="#24E2A5" stroke="#24E2A5" stroke-width="2"/>
<path d="M22.5 29.9987C27.4524 29.9987 29.1667 25.713 29.1667 23.332C29.1667 28.2844 33.4524 29.9987 35.8333 29.9987C30.5 29.9987 29.1667 34.4431 29.1667 36.6654C29.1667 31.713 24.881 29.9987 22.5 29.9987Z" fill="#24E2A5" stroke="#24E2A5" stroke-width="2"/>
</svg>
